<?xml version="1.0" encoding="UTF-8" standalone="no"?>
<svg width="251px" height="275px" viewBox="0 0 251 275" version="1.1" xmlns="http://www.w3.org/2000/svg" xmlns:xlink="http://www.w3.org/1999/xlink">
    <!-- Generator: Sketch 46 (44423) - http://www.bohemiancoding.com/sketch -->
    <title>help</title>
    <desc>Created with Sketch.</desc>
    <defs></defs>
    <g id="Page-1" stroke="none" stroke-width="1" fill="none" fill-rule="evenodd">
        <g id="help">
            <path d="M77.6910764,0 C74.3922192,0 71.7148859,2.67826087 71.7148859,5.97826087 L71.7148859,53.8043478 C71.7148859,57.1043478 74.3922192,59.7826087 77.6910764,59.7826087 L119.52441,59.7826087 L119.52441,67.4422554 C117.761434,68.4921875 116.265892,69.9605978 115.229023,71.7391304 L119.52441,71.7391304 L131.476791,71.7391304 L135.772178,71.7391304 C134.738297,69.9605978 133.240514,68.4921875 131.476791,67.4422554 L131.476791,59.7826087 L173.310124,59.7826087 C176.614957,59.7826087 179.286314,57.1043478 179.286314,53.8043478 L179.286314,5.97826087 C179.286314,2.67826087 176.614957,0 173.310124,0 L77.6910764,0 Z M107.572029,23.9130435 C110.870886,23.9130435 113.548219,26.5913043 113.548219,29.8913043 C113.548219,33.1913043 110.870886,35.8695652 107.572029,35.8695652 C104.273172,35.8695652 101.595838,33.1913043 101.595838,29.8913043 C101.595838,26.5913043 104.273172,23.9130435 107.572029,23.9130435 Z M143.429172,23.9130435 C146.728029,23.9130435 149.405362,26.5913043 149.405362,29.8913043 C149.405362,33.1913043 146.728029,35.8695652 143.429172,35.8695652 C140.130314,35.8695652 137.452981,33.1913043 137.452981,29.8913043 C137.452981,26.5913043 140.130314,23.9130435 143.429172,23.9130435 Z M73.5824454,77.7173913 C66.8592312,77.7173913 60.35863,80.5899457 55.84063,85.5638587 C55.044954,86.4398234 54.4365658,87.3931467 53.7863145,88.3661685 C50.601489,85.4903739 46.4168648,83.6956522 41.8339335,83.6956522 C32.003041,83.6956522 23.9053621,91.7961418 23.9053621,101.630435 C23.9053621,107.256229 26.5200966,112.342857 30.6285764,115.641984 L13.4470288,168.138587 C5.79763943,170.18308 0.000600199827,177.069577 0.000600199827,185.326087 C-0.029880102,187.482063 1.10246209,189.487443 2.9640308,190.574329 C4.82559951,191.661215 7.12798184,191.661215 8.98955055,190.574329 C10.8511193,189.487443 11.9834615,187.482063 11.9529812,185.326087 C11.9529812,181.94819 14.5524435,179.347826 17.9291716,179.347826 C21.3058997,179.347826 23.9053621,181.94819 23.9053621,185.326087 C23.8748818,187.482063 25.007224,189.487443 26.8687927,190.574329 C28.7303614,191.661215 31.0327437,191.661215 32.8943125,190.574329 C34.7558812,189.487443 35.8882234,187.482063 35.8577431,185.326087 C35.8577431,178.302258 31.7157524,172.194897 25.7729216,169.259511 L42.0206895,119.565217 C45.2841138,119.530233 48.3489254,118.534601 50.9849752,116.949728 L58.2684573,193.546196 C59.4338145,205.885326 69.5918442,215.217391 81.9864633,215.217391 L174.057148,215.217391 C186.834243,215.217391 197.346362,205.194837 197.96191,192.425272 L201.510273,117.697011 C203.795395,118.799229 206.300572,119.536486 208.980511,119.565217 L225.228279,169.259511 C219.285447,172.194897 215.143457,178.302258 215.143457,185.326087 C215.112977,187.482063 216.245319,189.487443 218.106888,190.574329 C219.968457,191.661215 222.270839,191.661215 224.132408,190.574329 C225.993976,189.487443 227.126319,187.482063 227.095838,185.326087 C227.095838,181.94819 229.695302,179.347826 233.072029,179.347826 C236.448756,179.347826 239.048219,181.94819 239.048219,185.326087 C239.017739,187.482063 240.150081,189.487443 242.01165,190.574329 C243.873219,191.661215 246.175601,191.661215 248.03717,190.574329 C249.898738,189.487443 251.031081,187.482063 251.0006,185.326087 C251.0006,177.069577 245.203564,170.18308 237.554172,168.138587 L220.372624,115.641984 C224.481106,112.342857 227.095838,107.256229 227.095838,101.630435 C227.095838,91.7961359 218.99816,83.6956522 209.167267,83.6956522 C204.86625,83.6956522 200.879713,85.237888 197.775154,87.8057065 C197.119512,86.8914989 196.513251,86.0203049 195.720838,85.1902174 C191.166981,80.413587 184.950249,77.7173913 178.352535,77.7173913 L73.5824454,77.7173913 Z M41.8339335,95.6521739 C45.2052699,95.6521739 47.810124,98.2579304 47.810124,101.630435 C47.810124,105.002939 45.2052699,107.608696 41.8339335,107.608696 C41.1177648,107.608696 40.4089826,107.452597 39.7796181,107.235054 C39.6551445,107.231162 39.5305797,107.231162 39.4061062,107.235054 C37.2512054,106.344102 35.8577431,104.159819 35.8577431,101.630435 C35.8577431,98.2579245 38.4625912,95.6521739 41.8339335,95.6521739 Z M209.167267,95.6521739 C212.538603,95.6521739 215.143457,98.2579304 215.143457,101.630435 C215.143457,104.007033 213.912398,106.076736 211.968606,107.048234 C211.583678,107.135465 211.208334,107.260623 210.84807,107.421875 C210.322996,107.566639 209.747017,107.608696 209.167267,107.608696 C205.79593,107.608696 203.191076,105.002939 203.191076,101.630435 C203.191076,98.2579304 205.79593,95.6521739 209.167267,95.6521739 Z M95.6196478,221.195652 L95.6196478,257.065217 C95.6196478,266.953261 103.6636,275 113.548219,275 L143.429172,275 C153.313791,275 161.357743,266.953261 161.357743,257.065217 L161.357743,221.195652 L149.405362,221.195652 L149.405362,233.152174 L137.452981,233.152174 L137.452981,221.195652 L119.52441,221.195652 L119.52441,233.152174 L107.572029,233.152174 L107.572029,221.195652 L95.6196478,221.195652 Z M107.572029,245.108696 L119.52441,245.108696 L119.52441,257.065217 L107.572029,257.065217 L107.572029,245.108696 Z M137.452981,245.108696 L149.405362,245.108696 L149.405362,257.065217 L137.452981,257.065217 L137.452981,245.108696 Z" id="Shape" fill="#08A2CC" fill-rule="nonzero"></path>
            <text id="?" font-family="ProximaNova-Regular, Proxima Nova" font-size="144" font-weight="normal" fill="#FFFFFF">
                <tspan x="92.236" y="196">?</tspan>
            </text>
        </g>
    </g>
</svg>